# xmcd
# Track frame offsets:
# 150
# 13072
# 31920
# 47435
# 63597
# 77507
# 92740
# 105935
# 120447
# 131995
#
# Disc length: 1960 seconds
# Revision: 2
# Processed by: cddbd v1.5.1PL2 Copyright (c) Steve Scherf et al.
# Submitted via: VisiTrax 2.9.10.228 - For more info visit www.synapsa.com
#
DISCID=7407a60a
DTITLE=Various Artist - Ladies of Country Music
DYEAR=1900
DGENRE=
TTITLE0=Barbara Mandrell - I Wish That I Could Fall In Love Today
TTITLE1=Gail Davies - Grandma's Song
TTITLE2=Juice Newton - Queen of Hearts
TTITLE3=Lacy J. Dalton - Black Coffee
TTITLE4=Linda Davis - He Isn't My Affair Anymore
TTITLE5=Tanya Tucker - If It Don't Come Easy
TTITLE6=Suzy Boggus - I Don't Want to Set The World On Fire
TTITLE7=Paulette Carlson - I'll Start With You
TTITLE8=Crystal Gayle - Don't It Make My Brown Eyes Blue
TTITLE9=Jessi Colter - I'm Not Lisa
EXTD=
EXTT0=
EXTT1=
EXTT2=
EXTT3=
EXTT4=
EXTT5=
EXTT6=
EXTT7=
EXTT8=
EXTT9=
PLAYORDER=
